# xmcd
#
# Track frame offsets:
#	150
#	13355
#	28262
#	44332
#	58720
#	73374
#	89304
#	104131
#	120578
#	136959
#	149447
#	170565
#	187785
#	201444
#	216288
#
# Disc length: 3071 seconds
#
# Revision: 0
# Processed by: cddbd v1.5.2PL0 Copyright (c) Steve Scherf et al.
# Submitted via: EasyCDDAExtractor 12.0.1.1
#
DISCID=f00bfd0f
DTITLE=João Bosco e Vinicius - Ao vivo
DYEAR=2009
DGENRE=Sertanejo
TTITLE0=Faz de conta
TTITLE1=Canto bebo e choro
TTITLE2=Terremoto
TTITLE3=Chora me liga
TTITLE4=Sufoco
TTITLE5=Larguei de ser besta
TTITLE6=Meu mundo
TTITLE7=Coração só ver voce
TTITLE8=Só preciso de uma chance
TTITLE9=To caindo fora
TTITLE10=Pout pourri
TTITLE11=Proprietário
TTITLE12=Pout pourri 2
TTITLE13=Pout pourri 3
TTITLE14=Ai que saudade
EXTD=
EXTT0=
EXTT1=
EXTT2=
EXTT3=
EXTT4=
EXTT5=
EXTT6=
EXTT7=
EXTT8=
EXTT9=
EXTT10=
EXTT11=
EXTT12=
EXTT13=
EXTT14=
PLAYORDER=
